IKResults
version=1
nRows=8
nColumns=40
inDegrees=yes

Units are S.I. units (second, meters, Newtons, ...)
Angles are in degrees.

endheader
time	pelvis_tilt	pelvis_list	pelvis_rotation	pelvis_tx	pelvis_ty	pelvis_tz	hip_flexion_r	hip_adduction_r	hip_rotation_r	knee_angle_r	knee_angle_r_beta	ankle_angle_r	subtalar_angle_r	mtp_angle_r	hip_flexion_l	hip_adduction_l	hip_rotation_l	knee_angle_l	knee_angle_l_beta	ankle_angle_l	subtalar_angle_l	mtp_angle_l	lumbar_extension	lumbar_bending	lumbar_rotation	arm_flex_r	arm_add_r	arm_rot_r	elbow_flex_r	pro_sup_r	wrist_flex_r	wrist_dev_r	arm_flex_l	arm_add_l	arm_rot_l	elbow_flex_l	pro_sup_l	wrist_flex_l	wrist_dev_l
      0.00000000	     15.45661839	     -1.97838428	      1.84922805	     -0.89133934	      0.94830656	     -0.99164326	    -18.16829212	      5.15357137	    -18.29863631	    -12.08768449	     -0.21096989	     10.78274706	      5.02563308	     -3.46362102	      3.02061468	      4.39006363	      4.92227849	    -49.68509359	     -0.86716847	      9.28788453	     17.20517858	      3.90117547	    -24.99341351	      0.60573133	      1.73307719	      2.32671861	    -13.31767717	      0.46755350	     39.30169487	     89.95437384	      0.00000000	      0.00000000	     -0.43218563	      9.22169950	     10.35506337	     19.79238280	     89.95437384	      0.00000000	      0.00000000
      0.01000000	     15.15723229	     -1.99649318	      1.73340876	     -0.88323638	      0.94732146	     -0.99073040	    -18.32519285	      5.19520938	    -18.22272730	    -12.23450880	     -0.21353246	     10.98717471	      4.88743312	     -3.46595518	      4.47720091	      4.44344059	      5.20615097	    -48.36518081	     -0.84413165	      9.27995103	     17.08180944	      3.90337390	    -24.69839306	      0.47483960	      1.78169563	      2.83248463	    -13.41837064	      0.38196538	     40.58955230	     89.95437384	      0.00000000	      0.00000000	     -1.39754981	      9.28528448	     10.42693249	     19.42080378	     89.95437384	      0.00000000	      0.00000000
      0.02000000	     15.38048911	     -1.61299832	      1.05485307	     -0.87441421	      0.94707761	     -0.98992492	    -19.29240927	      4.64524675	    -17.45993384	    -12.04028875	     -0.21014268	     11.61780251	      4.89706919	     -3.63373718	      4.68923787	      3.87469232	      5.85480886	    -46.16814080	     -0.80578607	      9.66098783	     17.18773504	      3.98642904	    -24.93867257	     -0.15783327	      2.45031352	      2.83028430	    -13.78964619	      0.15474288	     42.59368637	     89.95437384	      0.00000000	      0.00000000	     -2.00557632	      9.12562719	     11.02162198	     18.60478107	     89.95437384	      0.00000000	      0.00000000
      0.03000000	     15.34828044	     -1.42973722	      0.59902230	     -0.86596128	      0.94638900	     -0.98878926	    -19.77615419	      4.37697272	    -16.94217671	    -12.16017515	     -0.21223509	     11.85534280	      4.56105819	     -3.73060826	      5.27430902	      3.74479989	      6.77268290	    -43.93726831	     -0.76685000	      9.46648097	     16.91033112	      3.98461775	    -24.93580426	     -0.59841552	      2.77010982	      3.16874063	    -13.94118856	      0.09926714	     44.06511144	     89.95437384	      0.00000000	      0.00000000	     -2.76206930	      9.06732036	     11.75138101	     18.00639467	     89.95437384	      0.00000000	      0.00000000
      0.04000000	     15.26770605	     -1.30650961	      0.22843616	     -0.85745321	      0.94545568	     -0.98802854	    -20.26994906	      4.18435310	    -16.47272167	    -12.14891678	     -0.21203860	     12.18968291	      4.22661159	     -3.80053105	      5.89172402	      3.60659706	      7.47860984	    -41.67214620	     -0.72731616	      9.77936228	     16.25114271	      3.85001645	    -24.87132066	     -0.90456369	      3.06541678	      3.46866183	    -14.17558581	      0.08179213	     45.53240002	     89.95437384	      0.00000000	      0.00000000	     -3.51657508	      9.01601582	     12.17411331	     17.40897344	     89.95437384	      0.00000000	      0.00000000
      0.05000000	     15.18325664	     -1.16965239	     -0.14272462	     -0.84873890	      0.94439004	     -0.98726134	    -20.68979166	      3.97390624	    -15.96080836	    -12.26234583	     -0.21401831	     12.47079291	      3.68960747	     -3.86668581	      6.41249069	      3.49835963	      8.35386263	    -39.25200187	     -0.68507667	      9.33336431	     15.61453316	      3.53812812	    -24.78282737	     -1.22173339	      3.31666385	      3.75426636	    -14.37723640	      0.04433536	     46.90429658	     89.95437384	      0.00000000	      0.00000000	     -4.29624517	      8.96070038	     12.65547011	     16.86567257	     89.95437384	      0.00000000	      0.00000000
      0.06000000	     14.70467031	     -1.30065511	     -0.09206234	     -0.84025515	      0.94250156	     -0.98693567	    -20.61259943	      4.16163803	    -16.01639343	    -12.45962059	     -0.21746140	     12.70445315	      3.41483597	     -3.85518886	      7.66281748	      3.66933693	      8.78514280	    -37.26618577	     -0.65041764	      9.10323669	     14.97277818	      3.47287978	    -24.29293435	     -1.11395954	      3.25590650	      4.10404239	    -14.53099609	      0.07245299	     48.08311482	     89.95437384	      0.00000000	      0.00000000	     -5.17404602	      8.95001212	     12.75317183	     16.55522205	     89.95437384	      0.00000000	      0.00000000
      0.07000000	     14.28338969	     -1.32836142	     -0.20440541	     -0.83163864	      0.94071962	     -0.98660644	    -20.54737519	      4.17057313	    -15.82966635	    -12.79591493	     -0.22333085	     13.06672311	      2.99765190	     -3.85414030	      8.56706026	      3.67202310	      9.25689741	    -34.84736502	     -0.60820126	      8.41929716	     13.86725460	      3.35359668	    -23.86569697	     -1.15361149	      3.39412512	      4.30912466	    -14.78665408	      0.12775416	     49.29035111	     89.95437384	      0.00000000	      0.00000000	     -5.95781630	      8.88199534	     12.86385689	     16.16711847	     89.95437384	      0.00000000	      0.00000000
